<svg id="enSg8qBMGbD1" xmlns="http://www.w3.org/2000/svg" xmlns:xlink="http://www.w3.org/1999/xlink" viewBox="0 0 92 61" shape-rendering="geometricPrecision" text-rendering="geometricPrecision"><g clip-path="url(#enSg8qBMGbD8)"><g><path d="M304.791,13.216705C304.791,5.917302,298.907366,0,291.648856,0h-65.714713C218.675632,0,212.791,5.917302,212.791,13.216705v34.56659C212.791,55.082748,218.675632,61,225.934142,61h65.714713C298.907366,61,304.791,55.082748,304.791,47.783295v-34.56659Z" transform="translate(-212.791 0)" fill="#35c768"/><path d="M237.668,13.1129c-1.573,0-3.049.2492-4.327.6977c0,0-7.376,2.5911-7.376,9.1689.049,2.9899,1.082,5.5811,3.049,7.4748-1.623,1.4452-3.049,3.5879-3.049,6.4781.098,4.7838,2.606,8.6208,7.72,10.1159c2.163.6477,5.802.6477,7.967,0c5.162-1.5449,7.67-5.4317,7.67-10.3152c0-2.2426-1.081-4.5346-2.95-6.3286c1.967-1.9436,2.95-4.5846,2.95-7.6244c0-4.7339-4.769-9.6672-11.654-9.6672Zm0,28.404c-2.409,0-4.327-2.0431-4.327-4.0365c0-1.9433,1.918-3.9864,4.327-3.9864c2.41,0,4.377,2.0431,4.377,3.9864c0,1.9934-1.967,4.0365-4.377,4.0365Zm0-13.9528c-2.409,0-4.327-2.0931-4.327-4.0364s1.918-4.0364,4.327-4.0364c2.41,0,4.377,2.093,4.377,4.0364s-1.967,4.0364-4.377,4.0364Z" transform="translate(-212.791 0.030405)" fill="#fff"/><path d="M251.943,22.1324h4.623v25.1152h7.327v-32.5401h-11.015l-.935,7.4249Z" transform="translate(-212.791 0.030405)" fill="#fff"/><path d="M280.468,36.4342c.049-.0498.197-.0498.295-.0498c7.277-1.3952,11.064-5.7306,11.064-11.6108c0-4.7341-4.13-10.963-11.064-10.963-5.409,0-9.196,3.0397-10.081,3.7375-.59.4983-2.508,1.9931-2.508,1.9931l4.426,6.1791c0,0,1.967-1.5945,2.803-2.2423.344-.249,2.262-2.0431,5.36-2.0431c2.606,0,3.54,1.5447,3.688,3.0398.147,1.146-.049,3.3387-4.819,4.2355-.05,0-.196.0499-.295.0499-7.377,1.3954-11.015,6.1793-11.015,12.0096c0,1.8436,0,6.478,0,6.478h23.505v-7.4249h-16.13c0-.7973-.098-2.4419,4.771-3.3886Z" transform="translate(-212.791 0.030405)" fill="#fff"/></g><clipPath id="enSg8qBMGbD8"><rect width="305" height="100" rx="0" ry="0" fill="#fff"/></clipPath></g></svg>
